<mxfile host="app.diagrams.net" modified="2024-06-02T07:27:39.445Z" agent="Mozilla/5.0 (X11; Linux x86_64; rv:126.0) Gecko/20100101 Firefox/126.0" etag="NR-SkMEB5FdPhz6dtNE2" version="24.4.13" type="device">
  <diagram name="Page-1" id="4YZ19eFIGqYHpETlewSG">
    <mxGraphModel dx="880" dy="478" grid="1" gridSize="10" guides="1" tooltips="1" connect="1" arrows="1" fold="1" page="1" pageScale="1" pageWidth="850" pageHeight="1100" math="0" shadow="0">
      <root>
        <mxCell id="0" />
        <mxCell id="1" parent="0" />
        <mxCell id="LO_KBjffrQhbIIYlAG7j-1" value="Rooter" style="rounded=0;whiteSpace=wrap;html=1;fontFamily=arial;fontSize=25;" parent="1" vertex="1">
          <mxGeometry x="350" y="50" width="120" height="58" as="geometry" />
        </mxCell>
        <mxCell id="Yz_ARisxPzKxGrGCsr41-1" value="Objects" style="rounded=0;whiteSpace=wrap;html=1;fontFamily=arial;fontSize=25;" vertex="1" parent="1">
          <mxGeometry x="180" y="150" width="120" height="58" as="geometry" />
        </mxCell>
        <mxCell id="Yz_ARisxPzKxGrGCsr41-2" value="&lt;div&gt;Values&lt;/div&gt;" style="rounded=0;whiteSpace=wrap;html=1;fontFamily=arial;fontSize=25;" vertex="1" parent="1">
          <mxGeometry x="530" y="150" width="120" height="58" as="geometry" />
        </mxCell>
        <mxCell id="Yz_ARisxPzKxGrGCsr41-3" value="&lt;div&gt;JsonObject&lt;/div&gt;" style="rounded=0;whiteSpace=wrap;html=1;fontFamily=arial;fontSize=25;" vertex="1" parent="1">
          <mxGeometry x="150" y="252" width="170" height="58" as="geometry" />
        </mxCell>
        <mxCell id="Yz_ARisxPzKxGrGCsr41-4" value="JsonArray" style="rounded=0;whiteSpace=wrap;html=1;fontFamily=arial;fontSize=25;" vertex="1" parent="1">
          <mxGeometry x="150" y="352" width="170" height="58" as="geometry" />
        </mxCell>
        <mxCell id="Yz_ARisxPzKxGrGCsr41-7" value="vNumber" style="rounded=0;whiteSpace=wrap;html=1;fontFamily=arial;fontSize=25;" vertex="1" parent="1">
          <mxGeometry x="580" y="230" width="120" height="58" as="geometry" />
        </mxCell>
        <mxCell id="Yz_ARisxPzKxGrGCsr41-8" value="vString" style="rounded=0;whiteSpace=wrap;html=1;fontFamily=arial;fontSize=25;" vertex="1" parent="1">
          <mxGeometry x="580" y="302" width="120" height="58" as="geometry" />
        </mxCell>
        <mxCell id="Yz_ARisxPzKxGrGCsr41-9" value="vBoolean" style="rounded=0;whiteSpace=wrap;html=1;fontFamily=arial;fontSize=25;" vertex="1" parent="1">
          <mxGeometry x="580" y="370" width="120" height="58" as="geometry" />
        </mxCell>
        <mxCell id="Yz_ARisxPzKxGrGCsr41-10" value="vObject" style="rounded=0;whiteSpace=wrap;html=1;fontFamily=arial;fontSize=25;" vertex="1" parent="1">
          <mxGeometry x="580" y="440" width="120" height="58" as="geometry" />
        </mxCell>
        <mxCell id="Yz_ARisxPzKxGrGCsr41-11" value="vArray" style="rounded=0;whiteSpace=wrap;html=1;fontFamily=arial;fontSize=25;" vertex="1" parent="1">
          <mxGeometry x="580" y="510" width="120" height="58" as="geometry" />
        </mxCell>
        <mxCell id="Yz_ARisxPzKxGrGCsr41-14" value="keys-values" style="rounded=0;whiteSpace=wrap;html=1;fontFamily=arial;fontSize=25;" vertex="1" parent="1">
          <mxGeometry x="320" y="261" width="140" height="40" as="geometry" />
        </mxCell>
        <mxCell id="Yz_ARisxPzKxGrGCsr41-15" value="&lt;div&gt;values&lt;/div&gt;" style="rounded=0;whiteSpace=wrap;html=1;fontFamily=arial;fontSize=25;" vertex="1" parent="1">
          <mxGeometry x="320" y="362" width="140" height="40" as="geometry" />
        </mxCell>
        <mxCell id="Yz_ARisxPzKxGrGCsr41-18" value="" style="shape=flexArrow;endArrow=classic;html=1;rounded=0;exitX=0;exitY=0.5;exitDx=0;exitDy=0;" edge="1" parent="1" source="LO_KBjffrQhbIIYlAG7j-1" target="Yz_ARisxPzKxGrGCsr41-1">
          <mxGeometry width="50" height="50" relative="1" as="geometry">
            <mxPoint x="460" y="350" as="sourcePoint" />
            <mxPoint x="510" y="300" as="targetPoint" />
            <Array as="points">
              <mxPoint x="240" y="80" />
            </Array>
          </mxGeometry>
        </mxCell>
        <mxCell id="Yz_ARisxPzKxGrGCsr41-19" value="" style="shape=flexArrow;endArrow=classic;html=1;rounded=0;exitX=1;exitY=0.5;exitDx=0;exitDy=0;" edge="1" parent="1" source="LO_KBjffrQhbIIYlAG7j-1">
          <mxGeometry width="50" height="50" relative="1" as="geometry">
            <mxPoint x="710" y="79" as="sourcePoint" />
            <mxPoint x="600" y="150" as="targetPoint" />
            <Array as="points">
              <mxPoint x="600" y="80" />
            </Array>
          </mxGeometry>
        </mxCell>
        <mxCell id="Yz_ARisxPzKxGrGCsr41-20" value="" style="shape=flexArrow;endArrow=classic;html=1;rounded=0;entryX=0;entryY=0.5;entryDx=0;entryDy=0;exitX=0;exitY=0.5;exitDx=0;exitDy=0;" edge="1" parent="1">
          <mxGeometry width="50" height="50" relative="1" as="geometry">
            <mxPoint x="180" y="177" as="sourcePoint" />
            <mxPoint x="150" y="279" as="targetPoint" />
            <Array as="points">
              <mxPoint x="60" y="178" />
              <mxPoint x="60" y="279" />
            </Array>
          </mxGeometry>
        </mxCell>
        <mxCell id="Yz_ARisxPzKxGrGCsr41-21" value="" style="shape=flexArrow;endArrow=classic;html=1;rounded=0;entryX=0;entryY=0.5;entryDx=0;entryDy=0;exitX=0;exitY=0.5;exitDx=0;exitDy=0;" edge="1" parent="1" source="Yz_ARisxPzKxGrGCsr41-1">
          <mxGeometry width="50" height="50" relative="1" as="geometry">
            <mxPoint x="60" y="280" as="sourcePoint" />
            <mxPoint x="150" y="382" as="targetPoint" />
            <Array as="points">
              <mxPoint x="60" y="179" />
              <mxPoint x="60" y="382" />
            </Array>
          </mxGeometry>
        </mxCell>
        <mxCell id="Yz_ARisxPzKxGrGCsr41-23" value="" style="shape=flexArrow;endArrow=classic;html=1;rounded=0;exitX=0.167;exitY=1.034;exitDx=0;exitDy=0;exitPerimeter=0;" edge="1" parent="1" target="Yz_ARisxPzKxGrGCsr41-11">
          <mxGeometry width="50" height="50" relative="1" as="geometry">
            <mxPoint x="540.04" y="208.00199999999998" as="sourcePoint" />
            <mxPoint x="570" y="467.03" as="targetPoint" />
            <Array as="points">
              <mxPoint x="540" y="540" />
            </Array>
          </mxGeometry>
        </mxCell>
        <mxCell id="Yz_ARisxPzKxGrGCsr41-24" value="" style="shape=flexArrow;endArrow=classic;html=1;rounded=0;exitX=0.167;exitY=1.034;exitDx=0;exitDy=0;exitPerimeter=0;entryX=0;entryY=0.5;entryDx=0;entryDy=0;" edge="1" parent="1" target="Yz_ARisxPzKxGrGCsr41-10">
          <mxGeometry width="50" height="50" relative="1" as="geometry">
            <mxPoint x="540.04" y="208.00199999999998" as="sourcePoint" />
            <mxPoint x="580" y="540" as="targetPoint" />
            <Array as="points">
              <mxPoint x="540" y="470" />
            </Array>
          </mxGeometry>
        </mxCell>
        <mxCell id="Yz_ARisxPzKxGrGCsr41-25" value="" style="shape=flexArrow;endArrow=classic;html=1;rounded=0;exitX=0.167;exitY=1.034;exitDx=0;exitDy=0;exitPerimeter=0;entryX=0;entryY=0.5;entryDx=0;entryDy=0;" edge="1" parent="1" target="Yz_ARisxPzKxGrGCsr41-9">
          <mxGeometry width="50" height="50" relative="1" as="geometry">
            <mxPoint x="540.04" y="208.00199999999998" as="sourcePoint" />
            <mxPoint x="580" y="469" as="targetPoint" />
            <Array as="points">
              <mxPoint x="540" y="400" />
            </Array>
          </mxGeometry>
        </mxCell>
        <mxCell id="Yz_ARisxPzKxGrGCsr41-26" value="" style="shape=flexArrow;endArrow=classic;html=1;rounded=0;entryX=0;entryY=0.5;entryDx=0;entryDy=0;" edge="1" parent="1" target="Yz_ARisxPzKxGrGCsr41-8">
          <mxGeometry width="50" height="50" relative="1" as="geometry">
            <mxPoint x="540" y="210" as="sourcePoint" />
            <mxPoint x="590" y="409" as="targetPoint" />
            <Array as="points">
              <mxPoint x="540" y="330" />
            </Array>
          </mxGeometry>
        </mxCell>
        <mxCell id="Yz_ARisxPzKxGrGCsr41-27" value="" style="shape=flexArrow;endArrow=classic;html=1;rounded=0;entryX=0;entryY=0.5;entryDx=0;entryDy=0;" edge="1" parent="1" target="Yz_ARisxPzKxGrGCsr41-7">
          <mxGeometry width="50" height="50" relative="1" as="geometry">
            <mxPoint x="540" y="208" as="sourcePoint" />
            <mxPoint x="580" y="329" as="targetPoint" />
            <Array as="points">
              <mxPoint x="540" y="260" />
            </Array>
          </mxGeometry>
        </mxCell>
        <mxCell id="Yz_ARisxPzKxGrGCsr41-30" value="" style="curved=1;endArrow=classic;html=1;rounded=0;entryX=0;entryY=0.5;entryDx=0;entryDy=0;exitX=0.75;exitY=0;exitDx=0;exitDy=0;" edge="1" parent="1" source="Yz_ARisxPzKxGrGCsr41-14" target="Yz_ARisxPzKxGrGCsr41-2">
          <mxGeometry width="50" height="50" relative="1" as="geometry">
            <mxPoint x="420" y="250" as="sourcePoint" />
            <mxPoint x="510" y="230" as="targetPoint" />
            <Array as="points">
              <mxPoint x="390" y="190" />
              <mxPoint x="460" y="170" />
            </Array>
          </mxGeometry>
        </mxCell>
        <mxCell id="Yz_ARisxPzKxGrGCsr41-32" value="" style="curved=1;endArrow=classic;html=1;rounded=0;entryX=0;entryY=0.5;entryDx=0;entryDy=0;exitX=0.75;exitY=0;exitDx=0;exitDy=0;" edge="1" parent="1" target="Yz_ARisxPzKxGrGCsr41-2">
          <mxGeometry width="50" height="50" relative="1" as="geometry">
            <mxPoint x="460" y="392" as="sourcePoint" />
            <mxPoint x="565" y="310" as="targetPoint" />
            <Array as="points">
              <mxPoint x="500" y="390" />
              <mxPoint x="520" y="340" />
              <mxPoint x="490" y="200" />
            </Array>
          </mxGeometry>
        </mxCell>
      </root>
    </mxGraphModel>
  </diagram>
</mxfile>
